<svg width="64" height="64" viewBox="0 0 64 64" fill="none" xmlns="http://www.w3.org/2000/svg">
<rect width="64" height="64" fill="#F3FDFF"/>
<g clip-path="url(#clip0_17_504)">
<path d="M33.2558 37.5663L31.0058 43.6718C30.9392 43.8512 30.8193 44.006 30.6622 44.1152C30.5051 44.2245 30.3183 44.2831 30.1269 44.2831C29.9355 44.2831 29.7487 44.2245 29.5916 44.1152C29.4345 44.006 29.3146 43.8512 29.248 43.6718L26.998 37.5663C26.9505 37.4375 26.8756 37.3204 26.7785 37.2233C26.6814 37.1262 26.5644 37.0513 26.4355 37.0038L20.33 34.7538C20.1506 34.6872 19.9959 34.5673 19.8866 34.4102C19.7773 34.2531 19.7188 34.0663 19.7188 33.8749C19.7188 33.6836 19.7773 33.4968 19.8866 33.3397C19.9959 33.1825 20.1506 33.0626 20.33 32.996L26.4355 30.746C26.5644 30.6985 26.6814 30.6237 26.7785 30.5265C26.8756 30.4294 26.9505 30.3124 26.998 30.1835L29.248 24.0781C29.3146 23.8986 29.4345 23.7439 29.5916 23.6346C29.7487 23.5254 29.9355 23.4668 30.1269 23.4668C30.3183 23.4668 30.5051 23.5254 30.6622 23.6346C30.8193 23.7439 30.9392 23.8986 31.0058 24.0781L33.2558 30.1835C33.3033 30.3124 33.3782 30.4294 33.4753 30.5265C33.5724 30.6237 33.6894 30.6985 33.8183 30.746L39.9238 32.996C40.1032 33.0626 40.2579 33.1825 40.3672 33.3397C40.4765 33.4968 40.535 33.6836 40.535 33.8749C40.535 34.0663 40.4765 34.2531 40.3672 34.4102C40.2579 34.5673 40.1032 34.6872 39.9238 34.7538L33.8183 37.0038C33.6894 37.0513 33.5724 37.1262 33.4753 37.2233C33.3782 37.3204 33.3033 37.4375 33.2558 37.5663V37.5663Z" stroke="#00CCF4" stroke-width="2" stroke-linecap="round" stroke-linejoin="round"/>
<path d="M37.625 18.875V24.5" stroke="#00CCF4" stroke-width="2" stroke-linecap="round" stroke-linejoin="round"/>
<path d="M40.4375 21.6875H34.8125" stroke="#00CCF4" stroke-width="2" stroke-linecap="round" stroke-linejoin="round"/>
<path d="M43.25 25.4375V29.1875" stroke="#00CCF4" stroke-width="2" stroke-linecap="round" stroke-linejoin="round"/>
<path d="M45.125 27.3125H41.375" stroke="#00CCF4" stroke-width="2" stroke-linecap="round" stroke-linejoin="round"/>
</g>
<defs>
<clipPath id="clip0_17_504">
<rect width="30" height="30" fill="white" transform="translate(17 17)"/>
</clipPath>
</defs>
</svg>
