<svg width="64" height="64" viewBox="0 0 64 64" fill="none" xmlns="http://www.w3.org/2000/svg">
<rect width="64" height="64" fill="#FFFAF3"/>
<g clip-path="url(#clip0_17_503)">
<path d="M45.207 35.2729L42.3125 36.7143L38.5625 29.5424L41.4922 28.0775C41.7099 27.9666 41.9627 27.9462 42.1954 28.0208C42.4281 28.0954 42.6218 28.2591 42.7344 28.476L45.6172 33.9955C45.6756 34.106 45.7114 34.2271 45.7224 34.3516C45.7334 34.4761 45.7194 34.6015 45.6811 34.7206C45.6429 34.8396 45.5813 34.9498 45.4999 35.0446C45.4185 35.1394 45.3189 35.217 45.207 35.2729V35.2729Z" stroke="#F28D00" stroke-width="2" stroke-linecap="round" stroke-linejoin="round"/>
<path d="M21.6863 36.5986L18.7918 35.1454C18.6803 35.0908 18.581 35.0143 18.4997 34.9206C18.4184 34.8268 18.3568 34.7176 18.3185 34.5995C18.2803 34.4815 18.2661 34.3569 18.277 34.2333C18.2878 34.1096 18.3234 33.9894 18.3816 33.8798L21.2644 28.3603C21.3772 28.1435 21.5702 27.9794 21.8022 27.9027C22.0342 27.8261 22.287 27.8431 22.5066 27.9501L25.4363 29.415L21.6863 36.5986Z" stroke="#F28D00" stroke-width="2" stroke-linecap="round" stroke-linejoin="round"/>
<path d="M42.3125 36.7148L40.4375 38.918L36.125 43.2305C36.0075 43.3404 35.8651 43.4202 35.7099 43.463C35.5548 43.5059 35.3917 43.5105 35.2344 43.4766L28.4375 41.7773C28.3133 41.7427 28.1976 41.6829 28.0977 41.6016L21.6875 36.5977" stroke="#F28D00" stroke-width="2" stroke-linecap="round" stroke-linejoin="round"/>
<path d="M40.4372 38.918L35.281 35.168L33.781 36.293C33.1311 36.778 32.3419 37.0401 31.531 37.0401C30.7201 37.0401 29.9309 36.778 29.281 36.293L28.6482 35.8125C28.5412 35.7312 28.4527 35.628 28.3885 35.5099C28.3244 35.3917 28.286 35.2613 28.2761 35.1273C28.2661 34.9932 28.2847 34.8586 28.3307 34.7323C28.3766 34.6059 28.4489 34.4908 28.5427 34.3945L33.1365 29.8125C33.2227 29.7266 33.3251 29.6586 33.4377 29.6124C33.5503 29.5661 33.671 29.5425 33.7927 29.543H38.5622" stroke="#F28D00" stroke-width="2" stroke-linecap="round" stroke-linejoin="round"/>
<path d="M25.5078 29.4152L31.5195 27.6574C31.7331 27.5962 31.9616 27.6128 32.1641 27.7043L36.2188 29.5441" stroke="#F28D00" stroke-width="2" stroke-linecap="round" stroke-linejoin="round"/>
<path d="M30.125 45.9492L26.5977 45.0586C26.4539 45.0261 26.3208 44.9576 26.2109 44.8594L23.5625 42.5625" stroke="#F28D00" stroke-width="2" stroke-linecap="round" stroke-linejoin="round"/>
</g>
<defs>
<clipPath id="clip0_17_503">
<rect width="30" height="30" fill="white" transform="translate(17 21)"/>
</clipPath>
</defs>
</svg>
